<svg viewBox="0 0 268 268"
     xmlns="http://www.w3.org/2000/svg"
     version="1.1">
    <style>
        circle {
        fill : none;
        stroke : #008B6F;
        stroke-width : 7px;
        }

        line {
        stroke : #00392D;
        stroke-width : 5px;
        stroke-linecap : round;
        }

        polygon {
        stroke: #00392D;
        stroke-width: 2px;
        stroke-linecap: round;
        fill: #008B6F;
        }

        text {
        font-family: 'luckiest_guyregular', serif;
        font-size : 60px;
        stroke : #00392D;
        stroke-width : 3px;
        fill : #F6F7F3;
        text-anchor: middle;
        }

        .triangle_group polygon {
        fill: #59BFC6;
        stroke-width: 1px;
        }

        svg {
        width: 50%;
        }
    </style>

    <circle r="130" cx="134" cy="134"></circle>
    <line x1="49" y1="198" x2="219" y2="198"></line>
    <polygon points="52,190 134,30 216,190"></polygon>
    <text x="134" y="142">SVG</text>
    <g class="triangle_group" transform="translate(45 67) rotate(10 12.5, 12.5)">
        <polygon points="7,10 12,0 17,10"></polygon>
        <polygon points="0,25, 5,15, 10,25"></polygon>
        <polygon points="15,25, 20,15, 25,25"></polygon>
    </g>
    <g class="triangle_group" transform="translate(198 67) rotate(-10 12.5, 12.5)">
        <polygon points="7,10 12,0 17,10"></polygon>
        <polygon points="0,25, 5,15, 10,25"></polygon>
        <polygon points="15,25, 20,15, 25,25"></polygon>
    </g>
    <g class="triangle_group" transform="translate(121.5 211) scale(0.6) translate(8 8)">
        <polygon points="7,10 12,0 17,10"></polygon>
        <polygon points="0,25, 5,15, 10,25"></polygon>
        <polygon points="15,25, 20,15, 25,25"></polygon>
    </g>
</svg>
